<svg width="13" height="17" viewBox="0 0 13 17" fill="none" xmlns="http://www.w3.org/2000/svg">
<path d="M12.0006 13.8333C12.0006 14.4964 11.7373 15.1323 11.2684 15.6011C10.7996 16.0699 10.1637 16.3333 9.50065 16.3333H3.66732C3.00428 16.3333 2.36839 16.0699 1.89955 15.6011C1.43071 15.1323 1.16732 14.4964 1.16732 13.8333V3.83333H0.333984V1.33333H4.08398L4.91732 0.5H8.25065L9.08398 1.33333H12.834V3.83333H12.0006V13.8333ZM2.00065 3.83333V13.8333C2.00065 14.2754 2.17625 14.6993 2.48881 15.0118C2.80137 15.3244 3.22529 15.5 3.66732 15.5H9.50065C9.94268 15.5 10.3666 15.3244 10.6792 15.0118C10.9917 14.6993 11.1673 14.2754 11.1673 13.8333V3.83333H2.00065ZM12.0006 3V2.16667H8.66732L7.83398 1.33333H5.33398L4.50065 2.16667H1.16732V3H12.0006ZM3.66732 5.5H4.50065V13.8333H3.66732V5.5ZM8.66732 5.5H9.50065V13.8333H8.66732V5.5Z" fill="black"/>
</svg>
