<svg width="20" height="20" viewBox="0 0 20 20" fill="none" xmlns="http://www.w3.org/2000/svg">
<g clip-path="url(#clip0)">
<path d="M14.8438 6.40625C14.8438 5.44825 14.5597 4.51176 14.0274 3.71521C13.4952 2.91866 12.7387 2.29782 11.8536 1.93121C10.9685 1.5646 9.99463 1.46868 9.05503 1.65557C8.11544 1.84247 7.25236 2.30379 6.57495 2.9812C5.89754 3.65861 5.43622 4.52169 5.24932 5.46128C5.06243 6.40088 5.15835 7.37479 5.52496 8.25987C5.89157 9.14495 6.51241 9.90144 7.30896 10.4337C8.10551 10.9659 9.042 11.25 10 11.25C11.2842 11.2485 12.5153 10.7377 13.4234 9.82966C14.3315 8.9216 14.8423 7.69044 14.8438 6.40625ZM5.70313 6.40625C5.70313 5.55641 5.95513 4.72565 6.42728 4.01904C6.89943 3.31242 7.57051 2.76168 8.35566 2.43646C9.14081 2.11124 10.0048 2.02614 10.8383 2.19194C11.6718 2.35774 12.4374 2.76697 13.0384 3.3679C13.6393 3.96883 14.0485 4.73446 14.2143 5.56797C14.3801 6.40148 14.295 7.26544 13.9698 8.05059C13.6446 8.83575 13.0938 9.50683 12.3872 9.97897C11.6806 10.4511 10.8498 10.7031 10 10.7031C8.86082 10.7018 7.76868 10.2486 6.96316 9.44309C6.15763 8.63757 5.70449 7.54543 5.70313 6.40625Z" fill="#E5330F"/>
<path d="M12.6485 14.5458C14.3906 12.6008 16.4063 9.65031 16.4063 6.40625C16.4063 4.70721 15.7313 3.07775 14.5299 1.87635C13.3285 0.674942 11.6991 0 10 0C8.30097 0 6.67152 0.674942 5.47011 1.87635C4.26871 3.07775 3.59376 4.70721 3.59376 6.40625C3.59376 9.65 5.60939 12.6005 7.35189 14.5455C4.75158 14.9723 3.10095 15.9784 3.10095 17.1678C3.10064 18.7561 6.13111 20 10 20C13.8689 20 16.8994 18.7561 16.8994 17.1681C16.8994 15.9788 15.2488 14.9727 12.6485 14.5458ZM10 0.546875C11.5535 0.548694 13.0428 1.1666 14.1412 2.26506C15.2397 3.36351 15.8576 4.85281 15.8594 6.40625C15.8594 11.2173 10.9756 15.5327 10 16.3466C9.02408 15.533 4.14064 11.2177 4.14064 6.40625C4.1425 4.85282 4.76042 3.36354 5.85887 2.2651C6.95731 1.16666 8.44658 0.548736 10 0.546875ZM10 19.4531C6.20017 19.4531 3.64751 18.2717 3.64751 17.1681C3.64751 16.2564 5.38455 15.3669 7.79892 15.0312C8.42775 15.6994 9.10117 16.3241 9.81455 16.9011L9.83283 16.9155C9.88084 16.9528 9.93995 16.9731 10.0008 16.9731C10.0616 16.9731 10.1208 16.9528 10.1688 16.9155L10.1883 16.8998C10.9006 16.323 11.573 15.6988 12.2011 15.0312C14.6155 15.3669 16.3525 16.2563 16.3525 17.1681C16.3525 18.2717 13.7999 19.4531 10 19.4531Z" fill="#E5330F"/>
</g>
<defs>
<clipPath id="clip0">
<rect width="20" height="20" fill="white"/>
</clipPath>
</defs>
</svg>
