<svg width="20" height="20" viewBox="0 0 20 20" fill="none" xmlns="http://www.w3.org/2000/svg">
<path d="M19.4374 16.7292L15.0871 12.4002C15.8586 11.1573 16.2872 9.70001 16.2872 8.15701C16.2872 3.65661 12.6226 0.0134277 8.14358 0.0134277C3.64318 0.0134277 0 3.67804 0 8.15701C0 12.6574 3.64318 16.3006 8.14358 16.3006C9.70801 16.3006 11.1439 15.8506 12.3868 15.1005L16.7372 19.4294C17.1015 19.7938 17.573 19.9866 18.0873 19.9866C18.6017 19.9866 19.0731 19.7938 19.4374 19.4294C20.1875 18.6794 20.1875 17.4793 19.4374 16.7292ZM8.14358 15.3791C4.15751 15.3791 0.921511 12.1431 0.921511 8.15701C0.921511 4.17094 4.15751 0.934939 8.14358 0.934939C12.1297 0.934939 15.3657 4.17094 15.3657 8.15701C15.3657 12.1431 12.1297 15.3791 8.14358 15.3791ZM18.7517 18.7865C18.3874 19.1509 17.7444 19.1509 17.3801 18.7865L13.1797 14.5647C13.6941 14.1575 14.1441 13.7075 14.5513 13.1932L18.7517 17.415C19.1374 17.8007 19.1374 18.4008 18.7517 18.7865Z" fill="#000002"/>
<path d="M8.14355 2.67078C5.12185 2.67078 2.65735 5.13528 2.65735 8.15697C2.65735 11.1787 5.12185 13.6432 8.14355 13.6432C11.1653 13.6432 13.6298 11.1787 13.6298 8.15697C13.6298 5.13528 11.1653 2.67078 8.14355 2.67078ZM8.14355 12.7002C5.63619 12.7002 3.60029 10.6643 3.60029 8.15697C3.60029 5.64961 5.63619 3.61372 8.14355 3.61372C10.6509 3.61372 12.6868 5.64961 12.6868 8.15697C12.6868 10.6643 10.6509 12.7002 8.14355 12.7002Z" fill="#000002"/>
</svg>
