<svg width="20" height="20" viewBox="0 0 20 20" fill="none" xmlns="http://www.w3.org/2000/svg">
<path d="M18.4236 17.6895L17.5572 6.28159C17.4609 5.03008 16.3779 4.01925 15.1264 4.01925H14.3803C14.1878 1.78099 12.2864 0 10 0C7.71364 0 5.81232 1.78099 5.61978 4.01925H4.87369C3.62219 4.01925 2.53915 5.03008 2.44288 6.28159L1.57646 17.6895C1.52832 18.3153 1.72086 18.8929 2.13001 19.3261C2.53915 19.7593 3.0927 20 3.71846 20H16.2576C16.8833 20 17.4369 19.7593 17.846 19.3261C18.2792 18.8929 18.4718 18.3153 18.4236 17.6895ZM10 0.770156C11.8773 0.770156 13.4176 2.19013 13.6102 4.01925H6.38994C6.58248 2.19013 8.12279 0.770156 10 0.770156ZM3.18897 6.35379C3.26118 5.48736 4.00726 4.78941 4.87369 4.78941H5.59571V5.99278C5.2347 6.13718 4.99403 6.4982 4.99403 6.90734C4.99403 7.46089 5.42724 7.8941 5.98079 7.8941C6.53434 7.8941 6.96755 7.46089 6.96755 6.90734C6.96755 6.4982 6.72688 6.13718 6.36587 5.99278V4.78941H13.6342V5.99278C13.2732 6.13718 13.0325 6.4982 13.0325 6.90734C13.0325 7.46089 13.4657 7.8941 14.0193 7.8941C14.5728 7.8941 15.0061 7.46089 15.0061 6.90734C15.0061 6.4982 14.7654 6.13718 14.4044 5.99278V4.78941H15.1264C15.9928 4.78941 16.7389 5.48736 16.8111 6.35379L17.5813 16.5584H2.44288L3.18897 6.35379ZM17.2925 18.8207C17.0277 19.1095 16.6667 19.2539 16.2576 19.2539H3.71846C3.30931 19.2539 2.9483 19.1095 2.68356 18.8207C2.41882 18.5319 2.29848 18.1709 2.32255 17.7617L2.34661 17.3045H17.6053L17.6294 17.7617C17.7016 18.1468 17.5572 18.5319 17.2925 18.8207Z" fill="#E5330F"/>
</svg>
