<svg width="20" height="20" viewBox="0 0 20 20" fill="none" xmlns="http://www.w3.org/2000/svg">
<path d="M13.9162 9.83137C14.6401 9.06608 15.1239 8.10548 15.3078 7.06825C15.4917 6.03103 15.3677 4.96265 14.9511 3.99513C14.5345 3.02761 13.8435 2.20336 12.9636 1.62422C12.0837 1.04509 11.0534 0.73645 9.99998 0.73645C8.94657 0.73645 7.91625 1.04509 7.03633 1.62422C6.15641 2.20336 5.46546 3.02761 5.04885 3.99513C4.63224 4.96265 4.50823 6.03103 4.69215 7.06825C4.87607 8.10548 5.35985 9.06608 6.08373 9.83137C5.34962 10.0167 4.69798 10.4408 4.23136 11.0371C3.76474 11.6333 3.50965 12.3678 3.50623 13.125V18.9843C3.50623 19.0569 3.53503 19.1264 3.58631 19.1777C3.63759 19.229 3.70714 19.2578 3.77966 19.2578H16.2203C16.2928 19.2578 16.3624 19.229 16.4136 19.1777C16.4649 19.1264 16.4937 19.0569 16.4937 18.9843V13.125C16.4903 12.3678 16.2352 11.6333 15.7686 11.0371C15.302 10.4408 14.6503 10.0167 13.9162 9.83137ZM9.99998 1.28903C10.958 1.28903 11.8945 1.57311 12.691 2.10535C13.4876 2.63759 14.1084 3.39408 14.475 4.27916C14.8416 5.16424 14.9376 6.13815 14.7507 7.07775C14.5638 8.01734 14.1024 8.88042 13.425 9.55783C12.7476 10.2352 11.8845 10.6966 10.9449 10.8835C10.0053 11.0704 9.03143 10.9744 8.14635 10.6078C7.26127 10.2412 6.50478 9.62037 5.97254 8.82382C5.44031 8.02727 5.15623 7.09078 5.15623 6.13278C5.15767 4.84858 5.66846 3.6174 6.57653 2.70933C7.48459 1.80126 8.71578 1.29048 9.99998 1.28903ZM15.9468 18.7109H4.0531V13.125C4.056 12.4262 4.31464 11.7527 4.7802 11.2317C5.24575 10.7106 5.88598 10.3781 6.57998 10.2968C7.54317 11.0901 8.75217 11.5239 9.99998 11.5239C11.2478 11.5239 12.4568 11.0901 13.42 10.2968C14.114 10.3781 14.7542 10.7106 15.2198 11.2317C15.6853 11.7527 15.944 12.4262 15.9468 13.125V18.7109Z" fill="#E5330F"/>
<path d="M4.71753 14.17C4.64501 14.17 4.57546 14.1989 4.52418 14.2501C4.4729 14.3014 4.44409 14.371 4.44409 14.4435V17.4219C4.44409 17.4944 4.4729 17.564 4.52418 17.6153C4.57546 17.6665 4.64501 17.6954 4.71753 17.6954C4.79005 17.6954 4.8596 17.6665 4.91088 17.6153C4.96216 17.564 4.99097 17.4944 4.99097 17.4219V14.4435C4.99097 14.371 4.96216 14.3014 4.91088 14.2501C4.8596 14.1989 4.79005 14.17 4.71753 14.17Z" fill="#E5330F"/>
</svg>
