<svg width="20" height="20" viewBox="0 0 20 20" fill="none" xmlns="http://www.w3.org/2000/svg">
<path d="M18.2321 2.58311C15.9425 0.38672 12.3059 0.462298 10.1096 2.75189L9.96554 2.89594L9.80996 2.74036C7.56805 0.495286 3.93058 0.492693 1.6855 2.7346C-0.559576 4.97651 -0.562168 8.61398 1.67974 10.8591L9.74658 18.9259C9.78581 18.9671 9.83805 18.9936 9.89447 19.0008C9.92348 19.011 9.95401 19.0163 9.98474 19.0162C10.0522 19.0149 10.1167 18.9882 10.1653 18.9413L18.2321 10.8744C18.2896 10.8194 18.3458 10.7631 18.4009 10.7057C20.5972 8.41606 20.5217 4.7795 18.2321 2.58311ZM17.8538 10.4999L9.9617 18.3881L2.0658 10.4884C1.0876 9.51123 0.538187 8.1851 0.538715 6.80245C0.539867 3.92672 2.872 1.59641 5.74773 1.59756C7.12976 1.5942 8.45565 2.14404 9.42967 3.1245L9.76963 3.4683C9.87637 3.57274 10.047 3.57274 10.1538 3.4683L10.4899 3.1341C12.5239 1.10064 15.8212 1.10107 17.8547 3.13506C19.8882 5.16906 19.8877 8.46638 17.8538 10.4999Z" fill="#E5330F"/>
</svg>
